<svg xmlns="http://www.w3.org/2000/svg" xmlns:xlink="http://www.w3.org/1999/xlink" version="1.1" width="256" height="256" viewBox="0 0 256 256" xml:space="preserve">

<defs>
</defs>
<g style="stroke: none; stroke-width: 0; stroke-dasharray: none; stroke-linecap: butt; stroke-linejoin: miter; stroke-miterlimit: 10; fill: none; fill-rule: nonzero; opacity: 1;" transform="translate(1.4065934065934016 1.4065934065934016) scale(2.81 2.81)" >
	<path d="M 24.951 37.337 c 5.729 0 10.39 -4.661 10.39 -10.39 s -4.661 -10.39 -10.39 -10.39 s -10.39 4.661 -10.39 10.39 S 19.222 37.337 24.951 37.337 z M 24.951 18.557 c 4.626 0 8.39 3.764 8.39 8.39 c 0 4.626 -3.764 8.39 -8.39 8.39 c -4.626 0 -8.39 -3.764 -8.39 -8.39 C 16.561 22.321 20.325 18.557 24.951 18.557 z" style="stroke: none; stroke-width: 1; stroke-dasharray: none; stroke-linecap: butt; stroke-linejoin: miter; stroke-miterlimit: 10; fill: rgb(0,0,0); fill-rule: nonzero; opacity: 1;" transform=" matrix(1 0 0 1 0 0) " stroke-linecap="round" />
	<path d="M 70.562 39.375 h -9.579 c -6.109 0 -11.08 -4.97 -11.08 -11.08 V 24.04 c 0 -2.703 -2.199 -4.902 -4.902 -4.902 s -4.902 2.199 -4.902 4.902 v 4.255 c 0 6.109 -4.97 11.08 -11.08 11.08 h -9.579 C 8.72 39.375 0 48.095 0 58.813 v 5.673 c 0 2.703 2.199 4.902 4.902 4.902 s 4.902 -2.199 4.902 -4.902 v -4.255 c 0 -2.001 0.528 -3.922 1.518 -5.604 v 16.024 c 0 1.539 1.252 2.791 2.791 2.791 h 21.676 c 1.539 0 2.791 -1.252 2.791 -2.791 V 47.378 c 2.499 -1.148 4.666 -2.785 6.423 -4.762 c 1.789 2.011 3.978 3.639 6.417 4.761 v 23.275 c 0 1.539 1.252 2.791 2.791 2.791 h 21.676 c 1.539 0 2.791 -1.252 2.791 -2.791 V 54.627 c 0.989 1.683 1.518 3.604 1.518 5.604 v 4.255 c 0 2.703 2.199 4.902 4.902 4.902 S 90 67.189 90 64.486 v -5.673 C 90 48.095 81.28 39.375 70.562 39.375 z M 37.194 45.802 L 36.58 46.06 v 24.593 c 0 0.437 -0.355 0.791 -0.791 0.791 H 14.113 c -0.436 0 -0.791 -0.354 -0.791 -0.791 V 49.289 l -1.709 1.718 c -2.456 2.469 -3.809 5.745 -3.809 9.225 v 4.255 c 0 1.601 -1.302 2.902 -2.902 2.902 S 2 66.087 2 64.486 v -5.673 c 0 -9.616 7.823 -17.439 17.439 -17.439 h 9.579 c 7.212 0 13.08 -5.868 13.08 -13.08 V 24.04 c 0 -1.601 1.302 -2.902 2.902 -2.902 s 2.902 1.302 2.902 2.902 v 4.255 v 1.418 C 47.902 36.763 43.699 43.078 37.194 45.802 z M 88 64.486 c 0 1.601 -1.302 2.902 -2.902 2.902 s -2.902 -1.302 -2.902 -2.902 v -4.255 c 0 -3.48 -1.353 -6.757 -3.809 -9.225 l -1.709 -1.718 v 21.363 c 0 0.437 -0.354 0.791 -0.791 0.791 H 54.211 c -0.437 0 -0.791 -0.354 -0.791 -0.791 V 46.06 l -0.614 -0.257 c -2.516 -1.054 -4.756 -2.702 -6.532 -4.781 c 1.444 -2.018 2.497 -4.308 3.084 -6.759 c 2.174 4.216 6.564 7.112 11.625 7.112 h 9.579 C 80.177 41.375 88 49.197 88 58.813 V 64.486 z" style="stroke: none; stroke-width: 1; stroke-dasharray: none; stroke-linecap: butt; stroke-linejoin: miter; stroke-miterlimit: 10; fill: rgb(0,0,0); fill-rule: nonzero; opacity: 1;" transform=" matrix(1 0 0 1 0 0) " stroke-linecap="round" />
	<path d="M 65.049 37.337 c 5.729 0 10.39 -4.661 10.39 -10.39 s -4.661 -10.39 -10.39 -10.39 s -10.39 4.661 -10.39 10.39 S 59.32 37.337 65.049 37.337 z M 65.049 18.557 c 4.626 0 8.39 3.764 8.39 8.39 c 0 4.626 -3.764 8.39 -8.39 8.39 s -8.39 -3.764 -8.39 -8.39 C 56.659 22.321 60.423 18.557 65.049 18.557 z" style="stroke: none; stroke-width: 1; stroke-dasharray: none; stroke-linecap: butt; stroke-linejoin: miter; stroke-miterlimit: 10; fill: rgb(0,0,0); fill-rule: nonzero; opacity: 1;" transform=" matrix(1 0 0 1 0 0) " stroke-linecap="round" />
</g>
</svg>